<svg width="434" height="434" viewBox="0 0 434 434" fill="none" xmlns="http://www.w3.org/2000/svg">
<g clip-path="url(#clip0_2988_129)">
<rect x="0.5" y="0.5" width="433" height="433" rx="216.5" fill="#BFBFBF"/>
<path d="M220.874 283.157C259.689 283.157 291.154 251.692 291.154 212.877C291.154 174.062 259.689 142.597 220.874 142.597C182.059 142.597 150.594 174.062 150.594 212.877C150.594 251.692 182.059 283.157 220.874 283.157Z" fill="#FFB6B6"/>
<path d="M180.528 293.55L177.353 261.455L240.758 249.599L278.198 340.757L213.085 415.636L166.692 324.478L180.528 293.55Z" fill="#FFB6B6"/>
<path d="M176.335 277.52L190.197 280.652C190.197 280.652 179.3 246.098 182.998 242.799C186.697 239.5 195.76 244.698 195.76 244.698L205.285 255.377L216.886 243.565C216.886 243.565 229.481 227.903 234.413 223.505C239.344 219.106 231.423 202.78 231.423 202.78C231.423 202.78 304.587 183.051 277.363 147.564C277.363 147.564 261.401 119.741 256.203 128.805C251.005 137.868 244.807 123.474 244.807 123.474L225.881 127.073C225.881 127.073 188.527 105.048 153.074 152.165C117.621 199.283 176.335 277.52 176.335 277.52Z" fill="#2F2E41"/>
<path d="M353.053 385.439C314.645 416.579 267.129 433.5 217 433.5C171.226 433.5 127.625 419.387 91.1533 393.228C91.2184 392.544 91.2836 391.869 91.3406 391.193C92.3091 380.612 93.1719 370.324 93.7415 361.795C95.9473 328.677 173.212 306.603 173.212 306.603C173.212 306.603 173.562 306.953 174.262 307.564C178.527 311.308 195.838 324.884 226.197 328.677C253.268 332.062 262.18 316.004 264.874 308.313C265.688 305.968 265.932 304.398 265.932 304.398L345.402 341.927C350.587 349.334 352.614 365.286 353.013 383.217C353.029 383.957 353.045 384.69 353.053 385.439Z" fill="black"/>
<path d="M370.088 63.9117C329.197 23.0209 274.828 0.5 217 0.5C159.172 0.5 104.803 23.0209 63.9117 63.9117C23.0209 104.803 0.5 159.172 0.5 217C0.5 269.782 19.2607 319.683 53.6402 359.084C56.9202 362.853 60.3468 366.523 63.9117 370.088C64.75 370.927 65.5965 371.765 66.4511 372.579C68.7301 374.785 71.0498 376.941 73.4101 379.033C74.8426 380.311 76.2913 381.564 77.7564 382.793C78.904 383.762 80.0516 384.714 81.2155 385.65C81.2399 385.675 81.2562 385.691 81.2806 385.707C84.5118 388.312 87.8 390.819 91.1533 393.228C127.625 419.387 171.226 433.5 217 433.5C267.129 433.5 314.645 416.579 353.053 385.439C356.187 382.899 359.255 380.262 362.267 377.536C364.928 375.126 367.533 372.644 370.088 370.088C370.894 369.283 371.7 368.469 372.489 367.647C374.687 365.384 376.819 363.081 378.903 360.745C414.202 321.091 433.5 270.531 433.5 217C433.5 159.172 410.979 104.803 370.088 63.9117ZM378.374 358.718C376.339 361.029 374.256 363.308 372.123 365.53C368.802 368.99 365.376 372.343 361.835 375.574C360.492 376.811 359.133 378.016 357.758 379.212C356.195 380.571 354.616 381.906 353.013 383.217C340.372 393.594 326.528 402.547 311.723 409.84C305.871 412.729 299.872 415.358 293.735 417.71C269.896 426.859 244.022 431.872 217 431.872C190.922 431.872 165.919 427.2 142.78 418.654C133.281 415.154 124.1 410.995 115.286 406.234C113.992 405.534 112.706 404.826 111.428 404.102C104.705 400.292 98.2018 396.133 91.9591 391.641C91.7556 391.494 91.544 391.339 91.3405 391.193C86.8965 387.986 82.5747 384.608 78.3993 381.06C76.8692 379.766 75.3553 378.455 73.8658 377.112C71.4404 374.955 69.0638 372.734 66.7441 370.455C62.3491 366.149 58.1492 361.664 54.1367 357.001C21.7349 319.365 2.12782 270.433 2.12782 217C2.12782 98.5191 98.5192 2.12782 217 2.12782C335.481 2.12782 431.872 98.5191 431.872 217C431.872 271.255 411.663 320.871 378.374 358.718Z" fill="#3F3D56"/>
</g>
<defs>
<clipPath id="clip0_2988_129">
<rect x="0.5" y="0.5" width="433" height="433" rx="216.5" fill="white"/>
</clipPath>
</defs>
</svg>
